<svg width="268" height="70" xmlns="http://www.w3.org/2000/svg" fill="none">

 <g>
  <title>Layer 1</title>
  <path id="svg_1" fill="white" d="m57.84633,8.06644c0.2731,-2.43944 -1.4564,-4.64222 -3.8958,-4.91529c-2.4395,-0.29128 -4.6423,1.45638 -4.9153,3.89582c-0.3277,2.78533 0.1274,6.11677 0.71,9.53927c1.6202,0.4916 3.1858,1.2016 4.6422,2.039c1.5656,-3.6956 3.0948,-7.35476 3.4589,-10.5588zm17.1307,10.7044c-0.9649,-2.2574 -3.5864,-3.2769 -5.8438,-2.312c-2.9673,1.2925 -6.0439,3.823 -9.1388,6.4263c1.1652,1.1469 2.2574,2.4394 3.1859,3.8412c3.5135,-0.4369 6.8814,-0.9649 9.4847,-2.0936c2.2574,-1.0012 3.295,-3.6227 2.312,-5.8619zm-7.4822,-11.90592c-1.9661,-1.45638 -4.7514,-1.05587 -6.2078,0.91024c-2.221,2.98559 -3.7138,7.44578 -5.334,11.79668c0.5461,0.3641 1.0559,0.7282 1.5474,1.1105c0.3641,0.2913 0.7464,0.6008 1.1287,0.9102c3.7138,-2.8035 7.5732,-5.5342 9.7942,-8.5198c1.4563,-1.9661 1.0376,-4.75143 -0.9285,-6.20782z" clip-rule="evenodd" fill-rule="evenodd"/>
  <path id="svg_2" fill="white" d="m59.04793,42.50984c-1.3654,1.4746 -2.8218,2.84 -4.3692,4.1689c-2.1664,1.8751 -4.3691,3.6956 -6.6083,5.4433c-2.4031,-1.4746 -4.1325,-2.221 -4.4238,-1.8387c-0.2549,0.3459 0.7464,1.6202 2.5487,3.2768c-6.044,4.4966 -12.4339,8.4653 -19.29709,11.7239c-1.07408,0.5098 -2.20278,0.8739 -3.31327,1.2744c-0.29128,0.1092 -0.60076,0.1092 -0.72819,0.1274c-1.74766,0.2002 -2.2756,-0.2731 -2.20278,-1.8751c0.21846,-4.9881 1.76586,-9.6667 3.36789,-14.3272c0.43691,-1.2743 0.89203,-2.5486 1.36535,-3.823c2.42124,1.4746 4.15069,2.2392 4.44197,1.8569c0.30948,-0.4187 -1.1469,-2.0935 -3.58634,-4.1871c1.74766,-4.5148 3.69557,-8.9567 5.98936,-13.2166c4.5876,3.4043 8.6655,5.6434 9.1206,5.0245c0.4551,-0.619 -2.9128,-3.9141 -7.555,-7.3548l-0.2002,-0.1456c0.801,-1.3654 1.6384,-2.7307 2.5304,-4.0597c1.1105,-1.6748 2.4759,-3.204 3.823,-4.6968c1.8023,-1.9843 4.1325,-2.6579 6.7358,-2.0753c8.3378,1.8568 14.1269,6.6447 16.8576,14.8551c0.5462,1.6748 0.0547,3.3132 -0.801,4.8242c-0.5825,1.0195 -1.2197,1.9844 -1.9297,2.8946c-4.4055,-3.2223 -8.2285,-5.2976 -8.6655,-4.715c-0.4187,0.5825 2.6215,3.5863 6.8997,6.8449z"/>
  <path id="svg_10" fill="white" d="m82.4087,63.4228c-0.7187,0.7093 -1.5914,1.064 -2.618,1.064c-1.0267,0 -1.8994,-0.3547 -2.618,-1.064c-0.7094,-0.7093 -1.064,-1.582 -1.064,-2.618c0,-1.036 0.3546,-1.9087 1.064,-2.618c0.7186,-0.7093 1.5913,-1.064 2.618,-1.064c1.0266,0 1.8993,0.3547 2.618,1.064c0.7186,0.7093 1.078,1.582 1.078,2.618c0,1.036 -0.3594,1.9087 -1.078,2.618zm-2.618,-0.126c0.7,0 1.288,-0.238 1.764,-0.714c0.476,-0.476 0.714,-1.0687 0.714,-1.778c0,-0.7093 -0.238,-1.302 -0.714,-1.778c-0.476,-0.476 -1.064,-0.714 -1.764,-0.714c-0.6907,0 -1.274,0.238 -1.75,0.714c-0.476,0.476 -0.714,1.0687 -0.714,1.778c0,0.7093 0.238,1.302 0.714,1.778c0.476,0.476 1.0593,0.714 1.75,0.714zm14.1178,-6.174c0.8214,0 1.4794,0.2613 1.974,0.784c0.4947,0.5133 0.742,1.2133 0.742,2.1l0,4.298l-1.218,0l0,-4.228c0,-0.5693 -0.154,-1.008 -0.462,-1.316c-0.308,-0.3173 -0.7326,-0.476 -1.274,-0.476c-0.6066,0 -1.0966,0.1913 -1.47,0.574c-0.3733,0.3733 -0.56,0.952 -0.56,1.736l0,3.71l-1.218,0l0,-7l1.218,0l0,1.008c0.4947,-0.7933 1.2507,-1.19 2.268,-1.19zm9.9165,7.182l0,-10.22l1.218,0l0,10.22l-1.218,0zm9.192,-8.274c-0.233,0 -0.429,-0.0793 -0.588,-0.238c-0.159,-0.1587 -0.238,-0.35 -0.238,-0.574c0,-0.224 0.079,-0.4153 0.238,-0.574c0.159,-0.168 0.355,-0.252 0.588,-0.252c0.224,0 0.415,0.084 0.574,0.252c0.159,0.1587 0.238,0.35 0.238,0.574c0,0.224 -0.079,0.4153 -0.238,0.574c-0.159,0.1587 -0.35,0.238 -0.574,0.238zm-0.616,8.274l0,-7l1.218,0l0,7l-1.218,0zm12.062,-7.182c0.822,0 1.48,0.2613 1.974,0.784c0.495,0.5133 0.742,1.2133 0.742,2.1l0,4.298l-1.218,0l0,-4.228c0,-0.5693 -0.154,-1.008 -0.462,-1.316c-0.308,-0.3173 -0.732,-0.476 -1.274,-0.476c-0.606,0 -1.096,0.1913 -1.47,0.574c-0.373,0.3733 -0.56,0.952 -0.56,1.736l0,3.71l-1.218,0l0,-7l1.218,0l0,1.008c0.495,-0.7933 1.251,-1.19 2.268,-1.19zm10.771,4.242c0.121,0.6253 0.406,1.1107 0.854,1.456c0.457,0.3453 1.017,0.518 1.68,0.518c0.924,0 1.596,-0.3407 2.016,-1.022l1.036,0.588c-0.682,1.0547 -1.708,1.582 -3.08,1.582c-1.111,0 -2.016,-0.3453 -2.716,-1.036c-0.691,-0.7 -1.036,-1.582 -1.036,-2.646c0,-1.0547 0.34,-1.932 1.022,-2.632c0.681,-0.7 1.563,-1.05 2.646,-1.05c1.026,0 1.862,0.364 2.506,1.092c0.653,0.7187 0.98,1.5867 0.98,2.604c0,0.1773 -0.014,0.3593 -0.042,0.546l-5.866,0zm2.422,-3.094c-0.654,0 -1.195,0.1867 -1.624,0.56c-0.43,0.364 -0.696,0.854 -0.798,1.47l4.676,0c-0.103,-0.6627 -0.364,-1.1667 -0.784,-1.512c-0.42,-0.3453 -0.91,-0.518 -1.47,-0.518zm25.196,-0.966l1.204,0l0,6.706c0,1.036 -0.35,1.8387 -1.05,2.408c-0.7,0.5787 -1.54,0.868 -2.52,0.868c-0.784,0 -1.461,-0.1493 -2.03,-0.448c-0.57,-0.2893 -0.999,-0.7093 -1.288,-1.26l1.064,-0.602c0.382,0.784 1.143,1.176 2.282,1.176c0.728,0 1.297,-0.1913 1.708,-0.574c0.42,-0.3827 0.63,-0.9053 0.63,-1.568l0,-0.994c-0.616,0.9333 -1.494,1.4 -2.632,1.4c-0.999,0 -1.844,-0.3547 -2.534,-1.064c-0.691,-0.7093 -1.036,-1.5727 -1.036,-2.59c0,-1.0173 0.345,-1.876 1.036,-2.576c0.69,-0.7093 1.535,-1.064 2.534,-1.064c1.148,0 2.025,0.462 2.632,1.386l0,-1.204zm-4.27,5.236c0.476,0.476 1.068,0.714 1.778,0.714c0.709,0 1.302,-0.238 1.778,-0.714c0.476,-0.476 0.714,-1.0687 0.714,-1.778c0,-0.7 -0.238,-1.288 -0.714,-1.764c-0.476,-0.476 -1.069,-0.714 -1.778,-0.714c-0.71,0 -1.302,0.238 -1.778,0.714c-0.476,0.476 -0.714,1.064 -0.714,1.764c0,0.7093 0.238,1.302 0.714,1.778zm14.037,-4.06c0.401,-0.868 1.129,-1.302 2.184,-1.302l0,1.274c-0.597,-0.028 -1.111,0.1307 -1.54,0.476c-0.429,0.3453 -0.644,0.9007 -0.644,1.666l0,3.71l-1.218,0l0,-7l1.218,0l0,1.176zm14.401,4.942c-0.719,0.7093 -1.591,1.064 -2.618,1.064c-1.027,0 -1.899,-0.3547 -2.618,-1.064c-0.709,-0.7093 -1.064,-1.582 -1.064,-2.618c0,-1.036 0.355,-1.9087 1.064,-2.618c0.719,-0.7093 1.591,-1.064 2.618,-1.064c1.027,0 1.899,0.3547 2.618,1.064c0.719,0.7093 1.078,1.582 1.078,2.618c0,1.036 -0.359,1.9087 -1.078,2.618zm-2.618,-0.126c0.7,0 1.288,-0.238 1.764,-0.714c0.476,-0.476 0.714,-1.0687 0.714,-1.778c0,-0.7093 -0.238,-1.302 -0.714,-1.778c-0.476,-0.476 -1.064,-0.714 -1.764,-0.714c-0.691,0 -1.274,0.238 -1.75,0.714c-0.476,0.476 -0.714,1.0687 -0.714,1.778c0,0.7093 0.238,1.302 0.714,1.778c0.476,0.476 1.059,0.714 1.75,0.714zm13.922,1.19c-1.055,0 -1.932,-0.35 -2.632,-1.05c-0.7,-0.7093 -1.05,-1.5867 -1.05,-2.632c0,-1.0453 0.35,-1.918 1.05,-2.618c0.7,-0.7093 1.577,-1.064 2.632,-1.064c0.691,0 1.311,0.168 1.862,0.504c0.551,0.3267 0.961,0.77 1.232,1.33l-1.022,0.588c-0.177,-0.3733 -0.453,-0.672 -0.826,-0.896c-0.364,-0.224 -0.779,-0.336 -1.246,-0.336c-0.7,0 -1.288,0.238 -1.764,0.714c-0.467,0.476 -0.7,1.0687 -0.7,1.778c0,0.7 0.233,1.288 0.7,1.764c0.476,0.476 1.064,0.714 1.764,0.714c0.467,0 0.887,-0.1073 1.26,-0.322c0.373,-0.224 0.658,-0.5227 0.854,-0.896l1.036,0.602c-0.299,0.5507 -0.728,0.994 -1.288,1.33c-0.56,0.3267 -1.181,0.49 -1.862,0.49zm10.611,-3.122c0.121,0.6253 0.406,1.1107 0.854,1.456c0.457,0.3453 1.017,0.518 1.68,0.518c0.924,0 1.596,-0.3407 2.016,-1.022l1.036,0.588c-0.682,1.0547 -1.708,1.582 -3.08,1.582c-1.111,0 -2.016,-0.3453 -2.716,-1.036c-0.691,-0.7 -1.036,-1.582 -1.036,-2.646c0,-1.0547 0.34,-1.932 1.022,-2.632c0.681,-0.7 1.563,-1.05 2.646,-1.05c1.026,0 1.862,0.364 2.506,1.092c0.653,0.7187 0.98,1.5867 0.98,2.604c0,0.1773 -0.014,0.3593 -0.042,0.546l-5.866,0zm2.422,-3.094c-0.654,0 -1.195,0.1867 -1.624,0.56c-0.43,0.364 -0.696,0.854 -0.798,1.47l4.676,0c-0.103,-0.6627 -0.364,-1.1667 -0.784,-1.512c-0.42,-0.3453 -0.91,-0.518 -1.47,-0.518zm11.604,0.21c0.401,-0.868 1.129,-1.302 2.184,-1.302l0,1.274c-0.597,-0.028 -1.111,0.1307 -1.54,0.476c-0.429,0.3453 -0.644,0.9007 -0.644,1.666l0,3.71l-1.218,0l0,-7l1.218,0l0,1.176zm9.492,-2.45c-0.234,0 -0.43,-0.0793 -0.588,-0.238c-0.159,-0.1587 -0.238,-0.35 -0.238,-0.574c0,-0.224 0.079,-0.4153 0.238,-0.574c0.158,-0.168 0.354,-0.252 0.588,-0.252c0.224,0 0.415,0.084 0.574,0.252c0.158,0.1587 0.238,0.35 0.238,0.574c0,0.224 -0.08,0.4153 -0.238,0.574c-0.159,0.1587 -0.35,0.238 -0.574,0.238zm-0.616,8.274l0,-7l1.218,0l0,7l-1.218,0zm9.43,-2.94c0.121,0.6253 0.406,1.1107 0.854,1.456c0.457,0.3453 1.017,0.518 1.68,0.518c0.924,0 1.596,-0.3407 2.016,-1.022l1.036,0.588c-0.682,1.0547 -1.708,1.582 -3.08,1.582c-1.111,0 -2.016,-0.3453 -2.716,-1.036c-0.691,-0.7 -1.036,-1.582 -1.036,-2.646c0,-1.0547 0.34,-1.932 1.022,-2.632c0.681,-0.7 1.563,-1.05 2.646,-1.05c1.026,0 1.862,0.364 2.506,1.092c0.653,0.7187 0.98,1.5867 0.98,2.604c0,0.1773 -0.014,0.3593 -0.042,0.546l-5.866,0zm2.422,-3.094c-0.654,0 -1.195,0.1867 -1.624,0.56c-0.43,0.364 -0.696,0.854 -0.798,1.47l4.676,0c-0.103,-0.6627 -0.364,-1.1667 -0.784,-1.512c-0.42,-0.3453 -0.91,-0.518 -1.47,-0.518zm13.989,0.21l-1.862,0l0,3.794c0,0.3453 0.065,0.5927 0.196,0.742c0.14,0.14 0.35,0.2147 0.63,0.224c0.28,0 0.625,-0.0093 1.036,-0.028l0,1.092c-1.064,0.14 -1.844,0.056 -2.338,-0.252c-0.495,-0.3173 -0.742,-0.91 -0.742,-1.778l0,-3.794l-1.386,0l0,-1.176l1.386,0l0,-1.596l1.218,-0.364l0,1.96l1.862,0l0,1.176z"/>
  <text transform="matrix(1.62053, 0, 0, 1.88309, -60.8871, -3.19615)" xml:space="preserve" text-anchor="start" font-family="Noto Sans JP" font-size="24" stroke-width="0" id="svg_14" y="24.45139" x="90.08042" stroke="#ffffff" fill="#ffffff">GroNow</text>
 </g>
</svg>